<?xml version="1.0" encoding="UTF-8"?>
<!DOCTYPE svg PUBLIC "-//W3C//DTD SVG 1.1//EN" "http://www.w3.org/Graphics/SVG/1.1/DTD/svg11.dtd">
<!-- Creator: CorelDRAW 2018 (64-Bit) -->
<svg xmlns="http://www.w3.org/2000/svg" xml:space="preserve" width="65.8434mm" height="34.0166mm" version="1.1" style="shape-rendering:geometricPrecision; text-rendering:geometricPrecision; image-rendering:optimizeQuality; fill-rule:evenodd; clip-rule:evenodd"
viewBox="0 0 6584.34 3401.66"
 xmlns:xlink="http://www.w3.org/1999/xlink">
 <defs>
  <style type="text/css">
   <![CDATA[
    .fil1 {fill:#23A8E1;fill-rule:nonzero}
    .fil3 {fill:#491113;fill-rule:nonzero}
    .fil0 {fill:#80B3D3;fill-rule:nonzero}
    .fil4 {fill:#DB6242;fill-rule:nonzero}
    .fil5 {fill:#F49774;fill-rule:nonzero}
    .fil6 {fill:#F4B1A3;fill-rule:nonzero}
    .fil2 {fill:white;fill-rule:nonzero}
   ]]>
  </style>
 </defs>
 <g id="__x0023_Layer_x0020_1">
  <metadata id="CorelCorpID_0Corel-Layer"/>
  <g id="_1498859229024">
   <path class="fil0" d="M6584.33 0l-6584.32 0 2839.37 3191.71c249.09,279.95 656.53,279.95 905.58,0l2839.37 -3191.71z"/>
   <g>
    <g>
     <polygon class="fil1" points="1525.5,25.44 3272.54,2083.88 5012.58,37.89 "/>
    </g>
    <g>
     <path class="fil2" d="M4304.68 611.43c-178.56,0.99 -357.16,1.99 -535.75,2.97 211.7,-244.52 306.82,-218.37 535.75,-2.97z"/>
    </g>
    <g>
     <path class="fil2" d="M2852.17 800.45c313.78,0 627.44,0 941.19,0 -70.04,-43.5 -236.65,-249.03 -328.36,-172.62 -7.47,6.29 -264.74,-312.12 -433.76,-158.71 -147.41,134.03 -215.9,-17.57 -383.02,88.59 -190.45,125.93 110.07,200.19 203.95,242.74z"/>
    </g>
    <path class="fil3" d="M3284.49 0.57l-1796.34 0 0 792.44 1784.39 2170.36 11.95 -14.95 1790.27 -2130.54 0 -817.31 -1790.27 0zm-1347.75 62.68l0 0 192.68 0 0 606.46 -192.68 -228.91 0 -377.55zm-27.63 344.67l0 0 -175.36 -208.28 0 -136.39 175.36 0 0 344.67zm680.99 -95.54l0 0 -202.47 -249.13 202.47 0 0 249.13zm-234.3 135.05l0 0 -197.51 -384.18 197.51 0 0 384.18zm-198.72 -326.08l0 0 194.86 379.03c-97.12,75.5 -165.5,141.53 -194.86,171.24l0 -550.27zm226.35 -19.43l0 0 197.82 243.42c-39.42,22.82 -76.11,45.85 -109.35,68.16 -31.42,21.08 -60.84,42.18 -88.47,62.89l0 -374.47zm234.33 -6.96l0 0 168.09 148.98c-59.91,24.84 -116.17,52.39 -168.09,80.9l0 -229.88zm196.62 137.34l0 0 -190.73 -169.05 210.22 0 0 161.68c-6.51,2.46 -13.05,4.88 -19.49,7.37zm674.47 -169.05l0 0 176.04 0 -176.04 86.04 0 -86.04zm-204.29 0l0 0 156.6 0 -156.6 72.5 0 -72.5zm-33.11 69.25l0 0 -149.62 -69.25 149.62 0 0 69.25zm-193.71 18.57l0 0 -179.63 -87.82 179.63 0 0 87.82zm-196.27 -65.17l0 0 166.6 81.43c-57.56,12.42 -113.2,28.64 -166.6,47.5l0 -128.93zm223.9 0.17l0 0 122.23 56.59c-41.45,2.33 -82.2,7.1 -122.23,13.76l0 -70.35zm367.71 2.12l0 0 0 68.44c-38.85,-6.49 -78.37,-11.15 -118.4,-13.69l118.4 -54.75zm228.41 -2.29l0 0 0 130.55c-54.05,-19.07 -110.41,-35.52 -168.46,-48.18l168.46 -82.37zm27.67 -22.65l0 0 209.7 0 -191.72 169.96c-5.92,-2.29 -12.02,-4.41 -18.02,-6.63l0 -163.33 0.04 0zm478.01 0l0 0 197.51 0 -197.51 383.68 0 -383.68zm-234.27 0l0 0 202.47 0 -202.47 247.22 0 -247.22zm-27.63 31.3l0 0 0 230.42c-52.54,-28.25 -109.35,-55.51 -169.53,-80.15l169.53 -150.27zm234.3 7.18l0 0 0 370.57c-25.15,-18.14 -51.61,-36.55 -79.58,-54.96 -36.1,-23.82 -76.07,-48.47 -119.27,-72.85l198.85 -242.76zm226.34 19.48l0 0 0 537.66c-37.07,-35.12 -103.86,-95.24 -193.27,-162.26l193.27 -375.4zm27.6 564.59l0 0 0 -622.55 192.72 0 0 402.35 -190.24 222.69c-0.65,-0.69 -1.48,-1.55 -2.48,-2.49zm220.38 -622.55l0 0 175.32 0 0 164.67 -175.32 205.25 0 -369.92zm-2927.77 0l0 0 0 103.58 -87.16 -103.58 87.16 0zm454.62 643.61l0 0 4.96 4.59c1.24,-1.35 126.4,-136.5 325.08,-269.81 182.96,-122.73 466.91,-268.65 781.62,-266.91 313.97,1.52 601.95,147.92 788.3,270.48 199.16,130.95 327.52,263.03 333.24,268.99l-136.7 160.02c-243.85,33.48 -418.51,214.38 -656.29,174.83 -119.79,-19.9 -123.4,-88.68 -157.65,-157.19 -26.32,-52.67 -68.31,-45.97 -123.02,-67.38 -50.88,-19.93 -80.33,-61.32 -182.1,-37.43 -89.2,20.91 -99.01,159.38 -209.98,151.44 -59.6,-4.27 -63.87,-88.09 -149.72,-195.4 -222.32,-267.08 -428.92,-230.12 -573.16,16.76l1067.18 1267.8 -1111.76 -1320.79zm2676.1 -511.32l0 0 0 -132.29 113 0 -113 132.29z"/>
    <g>
     <polygon class="fil1" points="3130.74,2501.73 3272.54,2272.42 3413.78,2501.73 3272.54,2731.55 "/>
    </g>
    <g>
     <g>
      <path class="fil2" d="M2309.43 1138.24c18.08,21.79 31.42,45.29 28.42,74.64 -2.07,20.43 -33,54.69 -9.51,65.13 26.36,-33.33 52.74,-66.65 79.1,-99.98 -21.22,-5.32 -189.27,-206.31 -192,-228.32 -37.13,20.39 -74.3,40.79 -111.45,61.17 5.79,23.32 45.65,0.19 65.43,1.63 29.21,2.1 50.26,19.74 68.9,40.64 -60.94,51.11 -209.22,176.99 -224.86,179.56 -7.96,1.27 -38.38,-21.21 -38.83,-1.97 -0.2,9.23 30.04,35.76 35.8,42.69 26.22,31.18 52.4,62.4 78.61,93.58 21.84,-9.95 -3.89,-25.82 7.24,-43.85 8.16,-13.2 172.91,-150.52 213.15,-184.92z"/>
     </g>
     <g>
      <path class="fil2" d="M2123.39 892c15.64,-3.36 22.02,15.3 33.8,-1.98 -28.8,-34.33 -57.6,-68.61 -86.41,-102.9 -13.09,-15.59 -29.62,-32.32 -24.9,0.63 3.13,22.23 -215.67,199.82 -229.07,205.31 -16.88,6.96 -26.73,-14.71 -39.13,3.43 25.8,30.66 51.54,61.34 77.37,92 8.69,10.31 16.82,21.59 26.36,31.11 11.95,11.98 7.34,-23.7 7.89,-20.63 -3.21,-18.09 18.6,-33.44 30.18,-43.33 54.53,-48 190.44,-161.85 203.91,-163.64z"/>
     </g>
     <g>
      <path class="fil2" d="M1813.99 859.65c-62.32,18.45 -128.78,-5.78 -148.42,-72.03 -19.15,-64.74 21.67,-132.56 73.07,-169.38 50.78,-36.4 126.61,-34.21 154.27,29.56 12.2,28.19 5.58,60.18 -3.3,88.28 -5.65,17.84 -21.05,35.27 1.96,45.46 30.35,-38.66 60.71,-77.26 91.06,-115.91 -37.21,-22.34 -53.54,-59.38 -81.14,-91.56 -31.1,-37.78 -72.83,-73.35 -122.85,-80.56 -101.25,-14.33 -196.64,90.16 -204.43,185.02 -4.79,51.4 13.19,100.47 43.96,141.14 26.46,35.07 65.9,57.26 85.88,97.17 9.24,3.34 95.43,-36.45 115.93,-44.28 -1.82,-3.92 -3.13,-9.7 -5.99,-12.91 -26.84,7.96 0,0 0,0z"/>
     </g>
     <g>
      <path class="fil2" d="M3200.4 2144.06c-40.59,-27.08 -142.01,-165.43 -161.34,-188.41 -3.82,-4.59 -7.71,-9.2 -11.61,-13.82 -0.37,-0.48 -10.02,7.93 -8.68,6.75 -6.1,5.11 4.72,20.23 -1.83,30.5 -27.97,43.78 -203.12,175.8 -212.21,182.14 -19.6,13.54 -41.07,-5.62 -52.54,11.16 25.36,30.11 98.08,124.99 106.49,126.37 16.91,2.75 5.24,-28.77 7.44,-35.28 4.34,-13.02 92.88,-86.27 125.2,-113.28 11.85,-9.92 24.25,15.03 31.31,25.5 11.54,17.08 16.71,35.27 10.51,55.33 -4.1,13.05 -25.29,32.45 -8.82,41.4 21.84,-25.49 83.3,-97.15 92.19,-107.55 8.89,-10.34 -19.98,-1.31 -16.54,-3.07 -13.06,6.76 -25.32,8.3 -37.51,-0.99 -3.38,-2.52 -38.42,-38.18 -34.94,-41.14 15.2,-12.75 33.83,-33.97 53.5,-38.79 30.43,-7.51 55.82,53.47 60.29,75.1 4.28,20.4 3.65,41.82 -2.68,61.74 -4.38,13.64 -17.19,24.56 0.62,32.79 25.11,-34.34 50.16,-68.66 75.17,-103 -5.07,0.2 -9.72,-0.94 -14.02,-3.45 -4.48,-3 4.89,2.48 0,0z"/>
     </g>
     <g>
      <path class="fil2" d="M2839.73 1998.33c77.79,-65.45 87.57,-178.24 27.11,-258.9 -65.87,-87.8 -189.48,-109.21 -275.3,-37.12 -77.75,65.41 -87.81,178.06 -26.73,258.4 70.21,92.47 183.39,102.94 274.92,37.62 40.76,-34.38 -3.51,2.48 0,0zm-16.4 -167.67l0 0c-22.84,53.26 -77.65,108.07 -131.67,129.37 -64.15,25.21 -109.35,-29.19 -83.27,-90.06 22.95,-53.47 77.72,-107.83 131.85,-129.33 65.32,-25.94 108.17,29.83 83.09,90.02 -13.47,31.39 2.48,-5.96 0,0z"/>
     </g>
     <g>
      <path class="fil2" d="M2612.39 1482.97c16.74,2.12 32.66,19.4 44.75,1.49 -26.18,-31.01 -52.37,-62.03 -78.58,-93.04 -20.98,9.49 1.65,19.38 -6.86,34.26 -8.61,15.06 -90.29,27.54 -112.03,31.4 7.89,-22.72 31.55,-92.25 40.82,-100.02 19.19,-15.7 31.15,15.24 45.27,-4.97 -32.28,-38.23 -64.53,-76.51 -96.77,-114.75 -10.92,-12.92 -19.71,-36.28 -34.59,-24 1.34,-1.1 0.2,51.94 -3.14,61.14 -3.03,8.32 -33,128.34 -67.93,157.7 -17.4,14.6 -78.93,68.22 -95.33,73.96 -19.08,6.67 -29.11,-21.08 -43.03,-1.33 29.28,34.78 58.6,69.53 87.89,104.31 4.41,5.23 21.22,30.45 27.04,31.5 18.4,3.33 2.1,-31.5 4,-38.31 5.34,-15.19 88.19,-95.91 123.37,-100.85 51.53,-7.24 112.86,-24.77 165.12,-18.49 11.95,1.49 -12.4,-1.51 0,0z"/>
     </g>
    </g>
    <g>
     <path class="fil4" d="M2391.56 806.94c-142.63,-5.89 -82.93,-139.49 13.92,-169.62 92.12,-28.68 285.35,60.59 347.23,119.88 -98.19,30.16 -225.28,25.82 -333.28,30.83 -7.96,-110.07 -33.76,-71.68 -27.87,18.91z"/>
    </g>
    <g>
     <path class="fil4" d="M2726.8 1249.64c-304.1,-2.5 -98.5,-469.96 4.96,-441.71 118.99,37.86 105.66,445.27 -4.96,441.71z"/>
    </g>
    <g>
     <path class="fil4" d="M2942.19 1096.92c-29.63,88.24 -83.3,104.71 -77.35,-2.47 6.86,-123.57 87.44,-93.91 173.91,-141.25 71.97,-39.48 110.73,-183.93 234.27,-97.54 55.08,38.56 118.23,6.32 135.83,64.66 -0.9,-2.96 -160.32,363.65 -71.66,363.65 -175,0 -97.83,-208.91 -30.83,-349.21 -65.14,31.21 -170.8,235.94 -84.02,269.63 -45.2,59.48 -183.24,139.16 -255.21,81.06 -54.67,-44.06 -24.32,-117.31 -24.94,-188.53z"/>
    </g>
    <g>
     <path class="fil4" d="M3086.99 1435.69c-123.1,36.92 -286.53,-42.56 -88.54,-82.55 122.85,-24.83 253.52,27.45 88.54,82.55 4.96,-1.48 -4.52,1.53 0,0z"/>
    </g>
    <g>
     <path class="fil4" d="M3241.15 1430.73c-25.97,-58.5 19.81,-128.24 94.53,-77.59 65.14,44.17 -30.01,109.58 -94.53,77.59z"/>
    </g>
    <g>
     <path class="fil4" d="M3137.21 1595.4c-85.05,-26.35 -371.72,-19.79 -184.07,-97.51 57.85,-23.94 358.21,3.46 184.07,97.51z"/>
    </g>
    <g>
     <path class="fil4" d="M3505.28 1712.3c-50.68,-43.27 -101.98,-45.67 -149.21,0 -63.32,-116.15 -293.44,-77.24 -400.96,-93.5 57.84,142.1 524.4,168.63 550.17,93.5z"/>
    </g>
    <g>
     <path class="fil4" d="M3438.17 1797.83c-111.18,-5.17 -235.33,-19.88 -340.3,2.96 65.63,16.43 225.61,63.32 76.62,102.94 53.43,76.48 140.14,71.59 196.98,4.48 -23.11,-11.37 -35.62,-25.35 -54.74,-37.27 58.98,-10.72 114.1,-44.72 121.44,-73.11z"/>
    </g>
    <g>
     <path class="fil4" d="M3565.02 1661.05c-186.55,-109.78 -139.36,-191.44 12.47,-267.61 79.51,-39.9 258.38,-183.73 333.28,-135.83 -115.28,134.48 -230.55,268.96 -345.75,403.44z"/>
    </g>
    <g>
     <path class="fil5" d="M3432.21 1404.38c-158.02,-162.32 235.99,-147.4 299.41,-204.47 46.24,15.42 379.86,-292.21 461.13,-273.09 -58.4,68.47 -184.14,287.02 -274.3,287.02 -69.28,0 -139.36,-10.3 -193.03,39.05 -78.48,72.25 -208.46,109.01 -293.21,151.49z"/>
    </g>
    <g>
     <path class="fil6" d="M3483.95 1205.9c-86.54,46.53 -168.36,-137.83 -18.95,-119.87 99.26,11.92 199.75,-8.37 294.49,7.96 -67.97,80.82 -166.02,125.35 -275.54,111.91z"/>
    </g>
    <g>
     <g>
      <path class="fil2" d="M3929.58 1850.88c6.75,22.88 10.54,46.99 7.58,70.87 -3.79,30.8 -34.52,103.18 -76.66,82.54 -41.24,-20.22 -77.41,-60.94 -112.44,-90.02 28.28,-33 53.15,-61.7 100.66,-45.68 13.06,4.34 24.29,-1.27 10.54,-9.23 -14.3,-8.27 -109.86,-69.32 -115.03,-63.46 -9.54,10.96 18.64,30.63 7.79,51.95 -8.07,15.78 -21.54,29.42 -32.87,43 -25.39,-21.43 -67.83,-44.2 -37.27,-79.58 19.12,-23.29 44.09,-41.35 73.99,-47.34 19.95,-4.03 64.95,13.71 70.77,-7.89 -38.35,-18.43 -76.62,-36.83 -114.93,-55.21 6.23,28.2 -118.14,159.63 -145.73,192.77 -4,4.83 -23.22,21.5 -23.42,28.11 -0.31,15.13 21.94,3.42 23.18,2.97 17.16,-6.34 240.47,180.25 245.98,192.99 3.51,9.92 -7.79,20.26 -1.04,25.84 -0.37,-0.34 8.03,7.61 8.93,6.48 13.78,-16.51 159.54,-210.77 189.58,-219.32 -28,-42.85 -56.01,-85.71 -83.54,-128.84 -20.81,9.09 -0.65,33.45 3.93,49.05z"/>
     </g>
     <g>
      <path class="fil2" d="M3712.22 2087.35c-73.27,-47.26 -197.4,45.13 -216.07,54.02 -36.66,17.37 -63.11,-19.15 -44.13,-52.98 16.53,-29.29 49.12,-43.55 81.47,-45.48 9.79,-0.58 47.61,7 51.47,0.93 4.59,-7.13 8.03,-7.75 1.49,-12.16 -30.22,-20.43 -60.4,-40.79 -90.58,-61.18 -6.2,37.2 -48.85,60.91 -73.24,86.12 -29.04,30.15 -53.61,68.08 -53.61,111.35 0,40.03 23.95,75.55 59.16,93.84 40.06,20.88 81.75,4.11 117.27,-18.01 22.11,-13.82 44.23,-30.22 67.87,-41.31 35.14,-16.47 81.27,-2.21 68.9,44.78 -9.96,37.87 -47.65,72.7 -84.85,82.55 -21.74,5.79 -44.79,3.86 -66.05,-3.17 -15.22,-5 -35.03,-25.9 -43.41,-3.93 40.97,29.84 81.89,59.67 122.86,89.51 3.62,-26.81 18.43,-38.45 38.31,-55.19 25.94,-22.74 50.74,-46.58 70.34,-75.14 40.93,-59.77 54.3,-143.35 -7.2,-194.55z"/>
     </g>
     <g>
      <path class="fil2" d="M3712.22 2087.35c32.63,21.09 -20.84,-17.43 0,0z"/>
     </g>
     <g>
      <path class="fil2" d="M4743.51 770.99c-0.24,0.14 -0.24,0.14 0,0z"/>
     </g>
     <g>
      <path class="fil2" d="M5006.62 693.03c-25.74,25.72 -297.04,-82.58 -316.88,-97.51 -10.23,-4.09 -10.58,-46.6 -24.88,-29.39 -14.26,17.23 -28.56,34.43 -42.89,51.61 -14.74,17.83 -29.52,35.6 -44.3,53.38 -9.17,11.08 -18.95,16.16 -1.34,25.41 29.52,-14.78 191.1,259.14 176.66,298.48 -25.56,13.27 -243.95,-178.4 -249.81,-191.03 -1.82,-5.15 9.65,-36.02 -7.44,-33.33 -8.06,1.26 -26.21,31.61 -31.35,37.81 -10.47,12.59 -20.87,25.22 -31.35,37.83 11.72,17.1 18.23,-0.76 33.83,1.48 13.51,2.7 65.05,46.94 79.07,58.68 -25.57,0.97 -94.71,4.64 -103.49,4 -31.87,3.95 -14.88,-23.39 -35.8,-32.85 -26.77,32.52 -53.6,65.03 -80.33,97.52 -15.58,18.89 -31.22,37.81 -46.79,56.68 -1.89,2.3 -1.65,1.12 1.76,3.95 11.64,9.63 3.68,5.92 20.05,0.22 17.84,-6.25 231.37,173.95 239.05,183.09 13.3,15.87 -5.44,34.4 14.5,43.07 21.16,-25.69 42.28,-51.41 63.43,-77.05 3.2,-3.88 4.96,-3.52 0.72,-6.98 -15.05,-12.45 -16.77,7.48 -35.34,5.43 -18.82,-3.14 -155.03,-118.84 -207.95,-162.63 64.29,-2.39 257.21,-9.56 289.25,-10.73 10.58,-0.38 40.17,31.62 37.69,42.91 -2.86,13.33 -16.33,19.69 1.89,28.01 16.92,-20.3 34.77,-40.53 51.37,-61.17l7.99 -9.96c2.69,-1.82 5.14,-5.11 7.41,-9.33l5.93 -7.46c14.98,-17.11 63.49,-70.76 57.67,-75.85 -16.26,-14.1 -24.15,16.44 -45.79,-1.89 -12.26,-8.79 -43.13,-63.08 -50.92,-76.28 -9.3,-15.84 21.47,-31.64 34.01,-39.47 27.38,-17.01 114.54,-41.74 122.85,12.28 1.41,9.09 -9.54,19.39 -2.96,24.83 1.55,1.3 7.2,8.53 9.5,5.74 5.76,-6.94 83.31,-100.29 116.42,-140.01 -3.49,-2.89 -7.31,-7.91 -11.44,-9.49zm-260.14 76.05l0 0c2.72,-1.72 5.41,-3.44 0,0 -1.79,1.14 -2.62,1.67 -2.97,1.91 0.49,-0.27 1.66,-1.05 2.9,-1.82 -12.16,7.75 -23.57,16.67 -33.8,26.84 -18.39,-31.65 -36.83,-63.33 -55.19,-95 41.52,17.31 82.96,34.74 124.34,52.24 -12.51,3.46 -24.4,8.93 -35.28,15.83z"/>
     </g>
     <g>
      <path class="fil2" d="M4402.69 1164.6c-83.78,-69.82 -198.61,-49.54 -267.61,29.33 -67.15,81.58 -60.4,199.78 21.36,268.65 82.51,67.94 200.02,50.73 267.13,-29.85 66.94,-81.24 62.36,-199.96 -20.88,-268.13zm-9.92 233.32l0 0c-0.65,0.7 -0.89,0.94 -0.93,0.94 -43.48,45.58 -118.48,3.4 -158.92,-25.78 -40.45,-29.25 -109.76,-90.66 -65.5,-144.78 37.25,-45.4 110.22,-8.15 147.87,17 42.34,28.33 120.37,91.59 80.3,148.74 2.62,-3.19 4.45,-5.22 -2.82,3.88z"/>
     </g>
     <g>
      <path class="fil2" d="M4402.69 1164.6c41.31,33.83 -8.92,-7.46 0,0z"/>
     </g>
     <g>
      <path class="fil2" d="M4391.81 1398.86c0.31,-0.34 0.62,-0.63 0.93,-0.94 1.03,-1.31 1.96,-2.57 2.82,-3.88 -1.76,2.15 -3.93,4.82 -3.75,4.82z"/>
     </g>
     <g>
      <path class="fil2" d="M4170.15 1486.45c3.96,3.33 9.64,7.91 -2.24,-1.99 -100.01,-75.04 -218.52,-53.06 -296.42,40.8 -34.86,41.95 -69.69,83.91 -104.45,125.85 12.36,18.05 26.9,-4.16 44.92,6.2 15.37,8.82 220.28,179.93 223.62,189.3 5.79,16.16 -8.99,19.33 5.07,30.87 6.06,5.03 160.02,-185.03 174.08,-218.41 24.39,-61.91 4.96,-129.74 -44.58,-172.62zm-46.51 238.27l0 0c-8.48,10.44 -1.55,1.9 -23.46,22.95 -10.79,10.33 -227.1,-164.93 -218.46,-174.42 29.46,-32.38 90.58,-54.9 126.2,-45.77 77.27,19.76 183.93,115.02 115.72,197.24z"/>
     </g>
    </g>
   </g>
  </g>
 </g>
</svg>
